<svg xmlns="http://www.w3.org/2000/svg" version="1.1" xmlns:xlink="http://www.w3.org/1999/xlink" xmlns:svgjs="http://svgjs.dev/svgjs" width="128" height="128" viewBox="0 0 128 128"><g transform="matrix(0.8046875,0,0,0.8046875,12.41184074821259,12.814873242367177)"><svg viewBox="0 0 98 98" data-background-color="#f5ff00" preserveAspectRatio="xMidYMid meet" height="127" width="128" xmlns="http://www.w3.org/2000/svg" xmlns:xlink="http://www.w3.org/1999/xlink"><g id="tight-bounds" transform="matrix(1,0,0,1,0.08387967645792571,0.08387967645792571)"><svg viewBox="0 0 97.83224064708413 97.83224064708413" height="97.83224064708413" width="97.83224064708413"><g><svg></svg></g><g><svg viewBox="0 0 97.83224064708413 97.83224064708413" height="97.83224064708413" width="97.83224064708413"><g><path d="M0 48.916c0-27.016 21.9-48.916 48.916-48.916 27.016 0 48.916 21.9 48.916 48.916 0 27.016-21.9 48.916-48.916 48.916-27.016 0-48.916-21.9-48.916-48.916zM48.916 93.244c24.481 0 44.328-19.846 44.328-44.328 0-24.481-19.846-44.328-44.328-44.327-24.481 0-44.328 19.846-44.327 44.327 0 24.481 19.846 44.328 44.327 44.328z" data-fill-palette-color="tertiary" fill="#000000" stroke="transparent"></path><ellipse rx="46.959475510600384" ry="46.959475510600384" cx="48.91612032354207" cy="48.91612032354207" fill="#000000" stroke="transparent" stroke-width="0" fill-opacity="1" data-fill-palette-color="tertiary"></ellipse></g><g transform="matrix(1,0,0,1,23.475393915029336,23.475393915029336)"><svg viewBox="0 0 50.88145281702546 50.88145281702546" height="50.88145281702546" width="50.88145281702546"><g><svg viewBox="0 0 50.88145281702546 50.88145281702546" height="50.88145281702546" width="50.88145281702546"><g><svg viewBox="0 0 50.88145281702546 50.88145281702546" height="50.88145281702546" width="50.88145281702546"><g id="textblocktransform"><svg viewBox="0 0 50.88145281702546 50.88145281702546" height="50.88145281702546" width="50.88145281702546" id="textblock"><g><svg viewBox="0 0 50.88145281702546 50.88145281702546" height="50.88145281702546" width="50.88145281702546"><g><svg viewBox="0 0 50.88145281702546 50.88145281702546" height="50.88145281702546" width="50.88145281702546"><g><svg xmlns="http://www.w3.org/2000/svg" xmlns:xlink="http://www.w3.org/1999/xlink" version="1.1" x="0" y="0" viewBox="5 5 90 90" enable-background="new 0 0 100 100" xml:space="preserve" height="50.88145281702546" width="50.88145281702546" class="icon-icon-0" data-fill-palette-color="quaternary" id="icon-0"><path fill="#f5ff00" d="M85.5 66.9c-0.7-0.4-1.6-0.3-2.1 0.3-0.6 0.6-0.5 1.2-0.7 1.9-0.9 3.3-5.7 3.6-7 0.4V27.6l6.8-6.9c0.8-0.8 0.7-2.1-0.2-2.7-0.7-0.5-1.4-0.3-2.1-0.2-1.5 0.2-3.1 0-4.6-0.1-2-0.2-3.9-0.6-5.8-1-1.4-0.3-3.8-1.5-4.9-0.2l-7.6 9.2c-0.9 1.2-0.1 2.9 1.4 2.9h0.7v9h-11v-9.2l7.1-9.7c1-1.4-0.5-3.4-2.1-2.7-0.5 0.2-1 0.7-1.4 1.1-2.1 1.6-4.6 2.6-7.3 2.5-1.9-0.1-3.7-0.7-5.5-1.1-1.7-0.4-3.5-0.7-5.2-1.1-2.1-0.4-4.2-0.8-6.4-1.1-4.8-1-8.9 0.4-11.6 3.9-2.5 3.2-3 7.7-1.2 11.5 1.7 3.6 5.4 6.1 9.5 6.3 1 0 2.6 0.1 3.5-0.6 0.8-0.6 0.9-1.8 0.3-2.5C27.2 34 26 34 25.2 33.2c-0.7-0.6-1.2-1.5-1.3-2.5-0.2-2 1.1-4 3.1-4.4 2.1-0.5 4.2 0.7 4.8 2.7v8.7c-3.8 0.7-6.3 3.7-6.8 7.5-0.1 0.9-0.3 2 0.4 2.8 0.6 0.6 1.5 0.7 2.2 0.3 1.3-0.7 2.7-1.2 4.1-1.4V49c-3.8 0.7-6.3 3.7-6.8 7.5-0.1 0.9-0.3 2 0.4 2.8 0.6 0.6 1.5 0.7 2.2 0.3 1.3-0.7 2.7-1.2 4.1-1.4V64c-2.3 0.5-4.4 1.3-6.5 2.5-3.7 2.1-6.8 5.2-8.9 8.9-0.6 1-1 2-1.4 3-0.3 0.9-0.9 1.9-0.4 2.9 1.4 2.6 4.2-0.9 5.5-1.7 4-2.7 8.9-3.9 13.7-3.2 2.4 0.3 4.8 1.1 6.9 2.3 1.1 0.6 2.2 1.4 3.1 2.2 0.8 0.7 1.9 1.3 2.9 0.4l7.7-6.6C56.3 73 54 71 52.9 70c-1.4-1.3-3-2.5-4.6-3.5V52.4h11v17c0 7.4 7.5 12.9 14.3 12.9 6.3 0 11.8-4.7 12.7-10.9C86.5 70 86.9 67.7 85.5 66.9zM69.4 77.8c-3.4-1.4-6.5-4.5-6.5-8.4V50.6c0-1-0.8-1.8-1.8-1.8H46.5c-1 0-1.8 0.8-1.8 1.8v17c0 1.5 1.8 2 2.8 2.7 1.2 0.8 2.3 1.7 3.3 2.7l-5.3 4.5C38.7 72.1 29 71 21.1 74.8c1.8-2.4 4.2-4.4 6.9-5.7 1.4-0.7 2.9-1.2 4.4-1.6 1.3-0.3 3-0.4 2.9-2.1v-9.2c0.1-3-4.7-1.7-6.3-1.2 0.8-1.7 2.6-2.6 4.4-2.6 1.1 0.1 1.9-0.8 1.9-1.9V45c0.1-3-4.7-1.7-6.3-1.2 0.5-1.1 1.4-1.9 2.6-2.3 0.6-0.2 1.2-0.2 1.9-0.3 1 0.1 1.9-0.8 1.9-1.8V28.8l0 0 0 0 0 0c0-1.9-1.8-4-3.3-4.9-1.8-1.2-4.1-1.5-6.1-1-4.5 1.2-6.9 6.3-5.1 10.5-3.4-2-4.8-6.4-2.9-9.9 0.8-1.5 2.1-2.7 3.7-3.4 1.7-0.7 3.3-0.5 5.1-0.2 2.7 0.4 5.4 0.9 8 1.5 4.2 0.8 8.7 2.6 13 1.6l-2.9 4c-0.2 0.3-0.3 0.7-0.3 1.1v11.6c0 1 0.8 1.8 1.8 1.8H61c1 0 1.8-0.8 1.8-1.8V26.9c0-0.6-0.3-1.1-0.8-1.5l4.7-5.7c2 0.5 6.2 1.5 9.9 1.7l-4.1 4.2C72.2 26 72 26.4 72 26.9v42.9c0 1.7 1.7 3.5 3 4.4 1.7 1.1 3.7 1.4 5.7 1C78 78.6 73.4 79.4 69.4 77.8zM15.4 60.4c-1 0-1.8-0.8-1.8-1.8V45.5c0-1 0.8-1.8 1.8-1.8s1.8 0.8 1.8 1.8v13.1C17.2 59.6 16.4 60.4 15.4 60.4zM38.9 86c-0.4 0.9-1.4 1.4-2.3 1-3.6-1.4-7.7-1.4-11.3 0.1-0.2 0.1-0.5 0.1-0.7 0.1-0.7 0-1.4-0.4-1.7-1.1-0.4-0.9 0.1-2 1-2.4 4.4-1.8 9.5-1.9 13.9-0.1C38.8 84.1 39.3 85.1 38.9 86zM83.6 28.6c1 0 1.8 0.8 1.8 1.8v28.2c0 1-0.8 1.8-1.8 1.8s-1.8-0.8-1.8-1.8V30.4C81.8 29.4 82.6 28.6 83.6 28.6zM80.6 5H18.1C10.9 5 5 10.9 5 18.1v62.6C5 88.5 11.5 95 19.4 95h61.3C88.5 95 95 88.5 95 80.6V19.4C95 11.5 88.5 5 80.6 5zM91.4 80.6c0 5.9-4.9 10.8-10.8 10.8H19.4c-5.9 0-10.8-4.9-10.8-10.8V18.1c0-5.2 4.3-9.5 9.5-9.5h62.6c5.9 0 10.8 4.9 10.8 10.8L91.4 80.6z" data-fill-palette-color="quaternary"></path></svg></g></svg></g></svg></g></svg></g></svg></g><g></g></svg></g></svg></g></svg></g><defs></defs></svg><rect width="97.83224064708413" height="97.83224064708413" fill="none" stroke="none" visibility="hidden"></rect></g></svg></g></svg>